<?xml version="1.0" encoding="utf-8"?>
<svg data-v-0dd9719b="" version="1.0" xmlns="http://www.w3.org/2000/svg" width="100%" height="100%" viewBox="0 0 220 30" preserveAspectRatio="xMidYMid meet" color-interpolation-filters="sRGB" style="margin: auto;">
  <rect data-v-0dd9719b="" x="0" y="0" width="100%" height="100%" fill="#A3A6C2" fill-opacity="0" class="background"/>
  <rect data-v-0dd9719b="" x="0" y="0" width="100%" height="100%" fill="url(#watermark)" fill-opacity="1" class="watermarklayer"/>
  <g data-v-0dd9719b="" fill="#A3A6C2" class="iconlinesvg-g iconlinesvg" transform="matrix(1, 0, 0, 1, 3.040205, 2.140911)">
    <g class="tp-name">
      <g transform="translate(0, 2.176995169069462)">
        <g data-gra="path-name" fill="#A3A6C2" transform="scale(1)">
          <path d="M1.50-20.08L1.50-1.20C1.50-0.30 1.80 0 2.70 0L6.23 0C7.13 0 7.43-0.30 7.43-1.20L7.43-20.08C7.43-20.98 7.13-21.28 6.23-21.28L2.70-21.28C1.80-21.28 1.50-20.98 1.50-20.08Z" transform="translate(-1.4985014985014986, 21.278721278721285)"/>
        </g>
      </g>
      <g transform="translate(9, 2.176995169069462)">
        <g data-gra="path-name" fill="#A3A6C2" transform="scale(1)">
          <path d="M18.22-21.28L15.16-21.28C14.21-21.28 13.91-20.95 13.91-20.02L13.91-15.10C13.91-12.05 14.30-10.61 15.25-7.52L15.01-7.52C14.06-9.80 13.82-10.94 12.50-13.01L7.58-20.68C7.31-21.10 7.01-21.28 6.32-21.28L2.79-21.28C1.83-21.28 1.50-20.95 1.50-20.02L1.50-1.26C1.50-0.33 1.83 0 2.79 0L5.81 0C6.77 0 7.10-0.33 7.10-1.26L7.10-6.14C7.10-9.47 6.74-11.00 6.11-13.88L6.35-13.88C7.16-11.18 7.67-9.77 8.99-7.70L13.61-0.60C13.88-0.18 14.21 0 14.84 0L18.22 0C19.15 0 19.48-0.33 19.48-1.26L19.48-20.02C19.48-20.95 19.15-21.28 18.22-21.28Z" transform="translate(-1.4985014985014986, 21.278721278721285)"/>
        </g>
      </g>
      <g transform="translate(30, 2.176995169069462)">
        <g data-gra="path-name" fill="#A3A6C2" transform="scale(1)">
          <path d="M15.34-21.28L2.79-21.28C1.83-21.28 1.50-20.95 1.50-20.02L1.50-1.26C1.50-0.33 1.83 0 2.79 0L6.17 0C7.13 0 7.43-0.33 7.43-1.26L7.43-7.31L13.76-7.31C14.72-7.31 15.04-7.64 15.04-8.60L15.04-11.30C15.04-12.23 14.72-12.56 13.76-12.56L7.43-12.56L7.43-16.03L15.34-16.03C16.30-16.03 16.63-16.36 16.63-17.32L16.63-20.02C16.63-20.95 16.30-21.28 15.34-21.28Z" transform="translate(-1.4985014985014986, 21.278721278721285)"/>
        </g>
      </g>
      <g transform="translate(49, 2.176995169069462)">
        <g data-gra="path-name" fill="#A3A6C2" transform="scale(1)">
          <path d="M19.36-21.28L15.91-21.28C14.45-21.28 14.03-21.22 13.46-20.17L10.16-14.06L6.95-20.17C6.38-21.22 5.96-21.28 4.47-21.28L0.87-21.28C-0.06-21.28-0.18-20.71 0.24-20.02L7.13-8.24L7.13-1.26C7.13-0.33 7.46 0 8.42 0L11.81 0C12.77 0 13.07-0.33 13.07-1.26L13.07-8.24L19.99-20.02C20.38-20.71 20.26-21.28 19.36-21.28Z" transform="translate(-0.008923264869655098, 21.278721278721285)"/>
        </g>
      </g>
      <g transform="translate(73, 2.176995169069462)">
        <g data-gra="path-name" fill="#A3A6C2" transform="scale(1)">
          <path d="M11.33-21.28L2.79-21.28C1.83-21.28 1.50-20.95 1.50-20.02L1.50-1.26C1.50-0.33 1.83 0 2.79 0L6.17 0C7.13 0 7.43-0.33 7.43-1.26L7.43-7.07L8.12-7.07C9.35-7.07 9.86-6.56 10.37-5.54L12.29-1.44C12.77-0.39 13.46 0 15.04 0L18.28 0C19.27 0 19.48-0.66 19.06-1.47L16.36-6.59C16.12-7.07 15.85-7.49 15.55-7.88C17.59-9.02 18.79-11.12 18.79-14.06C18.79-18.70 15.85-21.28 11.33-21.28ZM12.65-14.09C12.65-12.86 11.93-12.08 10.67-12.08L7.43-12.08L7.43-16.03L10.67-16.03C11.96-16.03 12.65-15.28 12.65-14.09Z" transform="translate(-1.4985014985014984, 21.278721278721285)"/>
        </g>
      </g>
      <g transform="translate(94, 2.176995169069462)">
        <g data-gra="path-name" fill="#A3A6C2" transform="scale(1)">
          <path d="M15.34-21.28L2.79-21.28C1.83-21.28 1.50-20.95 1.50-20.02L1.50-1.26C1.50-0.33 1.83 0 2.79 0L15.61 0C16.54 0 16.87-0.33 16.87-1.26L16.87-3.99C16.87-4.95 16.54-5.24 15.61-5.24L7.43-5.24L7.43-8.12L13.76-8.12C14.72-8.12 15.04-8.45 15.04-9.41L15.04-12.11C15.04-13.04 14.72-13.37 13.76-13.37L7.43-13.37L7.43-16.03L15.34-16.03C16.30-16.03 16.63-16.36 16.63-17.32L16.63-20.02C16.63-20.95 16.30-21.28 15.34-21.28Z" transform="translate(-1.4985014985014988, 21.278721278721285)"/>
        </g>
      </g>
      <g transform="translate(117.5, 0)">
        <g>
          <g class="imagesvg">
            <g>
              <rect fill="#A3A6C2" fill-opacity="0" stroke-width="2" x="0" y="0" width="28.832955662225203" height="25.63271161686021" class="image-rect"/>
              <svg filter="url(#A3A6C2)" x="0" y="0" width="28.832955662225203" height="25.63271161686021" filtersec="colorsf3047175417" class="image-svg-svg primary" style="overflow: visible;">
                <svg xmlns="http://www.w3.org/2000/svg" viewBox="0.8755671381950378 0.7091520428657532 98.23143005371094 87.32884979248047">
                  <path fill="#A3A6C2" d="M49.862.712a3.29 3.29 0 0 0-2.698 1.635L1.314 83.125a3.273 3.273 0 0 0 1.2 4.472c.497.29 1.056.434 1.629.441h91.694c1.807 0 3.27-1.47 3.27-3.277 0-.573-.152-1.139-.441-1.629L66.463 26.366a3.266 3.266 0 0 0-2.829-1.635H41.982L50 10.606l4.54 8.018a3.279 3.279 0 1 0 5.7-3.243L52.829 2.347A3.265 3.265 0 0 0 49.862.712zM38.263 31.279h8.46v13.096H30.831l7.431-13.096zm15.014 0h8.46l7.438 13.096H53.277V31.279zM31.446 50.923H68.56V64.02H31.446V50.923zm-6.555 3.892v9.211h-5.216l5.216-9.211zm50.218 0l5.217 9.211h-5.217v-9.211zm-59.154 15.76h30.767V81.49H9.745l6.21-10.916zm37.322 0h30.768l6.21 10.915H53.278V70.574z"/>
                </svg>
              </svg>
              <defs>
                <filter id="colors2232661083">
                  <feColorMatrix type="matrix" values="0 0 0 0 0.19921875  0 0 0 0 0.19921875  0 0 0 0 0.19921875  0 0 0 1 0" class="icon-fecolormatrix"/>
                </filter>
              </defs>
            </g>
          </g>
        </g>
      </g>
      <g transform="translate(154, 2.176995169069462)">
        <g data-gra="path-name" fill="#A3A6C2" transform="scale(1)">
          <path d="M6.17-21.28L2.79-21.28C1.83-21.28 1.50-20.95 1.50-20.02L1.50-1.26C1.50-0.33 1.83 0 2.79 0L14.66 0C15.58 0 15.91-0.33 15.91-1.26L15.91-3.99C15.91-4.95 15.58-5.24 14.66-5.24L7.43-5.24L7.43-20.02C7.43-20.95 7.13-21.28 6.17-21.28Z" transform="translate(-1.4985014985014988, 21.278721278721285)"/>
        </g>
      </g>
      <g transform="translate(172, 2.176995169069462)">
        <g data-gra="path-name" fill="#A3A6C2" transform="scale(1)">
          <path d="M16.45-21.28L1.62-21.28C0.66-21.28 0.36-20.95 0.36-20.02L0.36-17.32C0.36-16.36 0.66-16.03 1.62-16.03L6.08-16.03L6.08-1.26C6.08-0.33 6.38 0 7.34 0L10.73 0C11.69 0 12.02-0.33 12.02-1.26L12.02-16.03L16.45-16.03C17.41-16.03 17.74-16.36 17.74-17.32L17.74-20.02C17.74-20.95 17.41-21.28 16.45-21.28Z" transform="translate(-0.3596403596403597, 21.278721278721285)"/>
        </g>
      </g>
      <g transform="translate(193, 2.176995169069462)">
        <g data-gra="path-name" fill="#A3A6C2" transform="scale(1)">
          <path d="M19.36-21.28L15.91-21.28C14.45-21.28 14.03-21.22 13.46-20.17L10.16-14.06L6.95-20.17C6.38-21.22 5.96-21.28 4.47-21.28L0.87-21.28C-0.06-21.28-0.18-20.71 0.24-20.02L7.13-8.24L7.13-1.26C7.13-0.33 7.46 0 8.42 0L11.81 0C12.77 0 13.07-0.33 13.07-1.26L13.07-8.24L19.99-20.02C20.38-20.71 20.26-21.28 19.36-21.28Z" transform="translate(-0.008923264869655098, 21.278721278721285)"/>
        </g>
      </g>
    </g>
  </g>
</svg>