<?xml version="1.0" encoding="utf-8"?>
<svg data-v-0dd9719b="" version="1.0" xmlns="http://www.w3.org/2000/svg" width="100%" height="100%" viewBox="0 0 32 32" preserveAspectRatio="xMidYMid meet" color-interpolation-filters="sRGB" style="margin: auto;">
  <title>sdf</title>
  <rect data-v-0dd9719b="" x="0" y="0" width="100%" height="100%" fill="#A3A6C2" fill-opacity="0" class="background"/>
  <rect data-v-0dd9719b="" x="0" y="0" width="100%" height="100%" fill="url(#watermark)" fill-opacity="1" class="watermarklayer"/>
  <g data-v-0dd9719b="" fill="#A3A6C2" class="iconlinesvg-g iconlinesvg" transform="matrix(1, 0, 0, 1, -116.030762, 3.349703)">
    <g class="tp-name">
      <g transform="translate(0, 2.176995169069462)">
        <g data-gra="path-name" fill="#A3A6C2" transform="scale(1)"/>
      </g>
      <g transform="translate(9, 2.176995169069462)">
        <g data-gra="path-name" fill="#A3A6C2" transform="scale(1)"/>
      </g>
      <g transform="translate(30, 2.176995169069462)">
        <g data-gra="path-name" fill="#A3A6C2" transform="scale(1)"/>
      </g>
      <g transform="translate(49, 2.176995169069462)">
        <g data-gra="path-name" fill="#A3A6C2" transform="scale(1)"/>
      </g>
      <g transform="translate(73, 2.176995169069462)">
        <g data-gra="path-name" fill="#A3A6C2" transform="scale(1)"/>
      </g>
      <g transform="translate(94, 2.176995169069462)">
        <g data-gra="path-name" fill="#A3A6C2" transform="scale(1)"/>
      </g>
      <g transform="translate(117.5, 0)">
        <g>
          <g class="imagesvg">
            <g>
              <rect fill="#A3A6C2" fill-opacity="0" stroke-width="2" x="0" y="0" width="28.832955662225203" height="25.63271161686021" class="image-rect"/>
              <svg filter="url(#A3A6C2)" x="0" y="0" width="28.832955662225203" height="25.63271161686021" filtersec="colorsf3047175417" class="image-svg-svg primary" style="overflow: visible;">
                <svg xmlns="http://www.w3.org/2000/svg" viewBox="0.8755671381950378 0.7091520428657532 98.23143005371094 87.32884979248047">
                  <path fill="#A3A6C2" d="M49.862.712a3.29 3.29 0 0 0-2.698 1.635L1.314 83.125a3.273 3.273 0 0 0 1.2 4.472c.497.29 1.056.434 1.629.441h91.694c1.807 0 3.27-1.47 3.27-3.277 0-.573-.152-1.139-.441-1.629L66.463 26.366a3.266 3.266 0 0 0-2.829-1.635H41.982L50 10.606l4.54 8.018a3.279 3.279 0 1 0 5.7-3.243L52.829 2.347A3.265 3.265 0 0 0 49.862.712zM38.263 31.279h8.46v13.096H30.831l7.431-13.096zm15.014 0h8.46l7.438 13.096H53.277V31.279zM31.446 50.923H68.56V64.02H31.446V50.923zm-6.555 3.892v9.211h-5.216l5.216-9.211zm50.218 0l5.217 9.211h-5.217v-9.211zm-59.154 15.76h30.767V81.49H9.745l6.21-10.916zm37.322 0h30.768l6.21 10.915H53.278V70.574z"/>
                </svg>
              </svg>
            </g>
          </g>
        </g>
      </g>
      <g transform="translate(154, 2.176995169069462)">
        <g data-gra="path-name" fill="#A3A6C2" transform="scale(1)"/>
      </g>
      <g transform="translate(172, 2.176995169069462)">
        <g data-gra="path-name" fill="#A3A6C2" transform="scale(1)"/>
      </g>
      <g transform="translate(193, 2.176995169069462)">
        <g data-gra="path-name" fill="#A3A6C2" transform="scale(1)"/>
      </g>
    </g>
  </g>
</svg>